<svg width="458" height="458" viewBox="0 0 458 458" fill="none" xmlns="http://www.w3.org/2000/svg">
<g clip-path="url(#clip0_503_17)">
<path d="M52.7305 219.521V335.05C52.7305 339.662 53.4127 343.044 54.777 345.196C56.1414 347.348 58.567 348.424 62.0538 348.424C63.7214 348.424 65.1616 348.348 66.3744 348.194C67.7388 347.886 69.0274 347.579 70.2402 347.271L67.9662 375.865C65.0858 378.018 60.9168 379.786 55.4592 381.169C50.1533 382.553 44.9231 383.245 39.7687 383.245C25.67 383.245 15.5886 380.17 9.52467 374.021C3.4607 367.871 0.428711 357.571 0.428711 343.121V219.521H52.7305Z" fill="#CE3262"/>
<path d="M142.443 308.992C142.443 305.456 141.609 302.689 139.941 300.691C138.425 298.692 136 297.693 132.665 297.693C129.481 297.693 126.828 298.615 124.706 300.46C122.583 302.305 121.371 305.994 121.067 311.529L76.952 305.072C78.0132 292.312 83.4708 282.166 93.3247 274.633C103.179 267.1 117.505 263.334 136.303 263.334C149.492 263.334 160.332 265.179 168.821 268.868C177.462 272.558 183.829 277.708 187.923 284.318C192.167 290.929 194.29 298.615 194.29 307.378V343.121C194.29 349.424 197.246 352.575 203.158 352.575C204.826 352.575 206.115 352.345 207.024 351.883L204.75 379.094C199.141 381.861 192.395 383.245 184.512 383.245C177.386 383.245 171.019 382.245 165.41 380.247C159.953 378.095 155.632 374.943 152.448 370.792C149.416 366.488 147.9 361.03 147.9 354.42V352.114H152.903C152.752 357.956 150.857 363.259 147.218 368.025C143.731 372.637 139.032 376.327 133.12 379.094C127.207 381.861 120.461 383.245 112.881 383.245C104.846 383.245 98.0243 382.015 92.4151 379.555C86.9575 377.095 82.7886 373.559 79.9082 368.948C77.0278 364.336 75.5876 358.878 75.5876 352.575C75.5876 344.12 78.2406 337.279 83.5466 332.052C88.8525 326.671 96.5083 322.982 106.514 320.983L146.081 312.682L145.854 331.36L133.574 334.358C130.391 335.127 128.117 336.433 126.752 338.278C125.388 339.969 124.706 342.121 124.706 344.735C124.706 347.195 125.464 349.193 126.98 350.73C128.496 352.268 130.618 353.036 133.347 353.036C134.56 353.036 135.697 352.806 136.758 352.345C137.971 351.883 138.956 351.192 139.714 350.269C140.624 349.347 141.306 348.271 141.761 347.041C142.215 345.657 142.443 344.12 142.443 342.429V308.992Z" fill="#CE3262"/>
<path d="M210.41 380.939V350.5L245.884 310.837L256.572 300.23L239.972 300.691H210.41V265.64H314.332V296.079L279.54 335.28L268.397 346.349L287.044 345.888H316.606V380.939H210.41Z" fill="#CE3262"/>
<path d="M457.572 265.64L424.144 368.025C419.141 383.245 413.532 395.389 407.316 404.46C401.252 413.683 393.9 420.294 385.259 424.291C376.769 428.442 366.385 430.517 354.105 430.517C346.828 430.517 340.234 429.825 334.321 428.442C328.409 427.058 323.33 425.213 319.086 422.907L328.636 389.471C331.062 390.854 333.639 391.854 336.368 392.468C339.248 393.083 343.417 393.391 348.875 393.391C353.726 393.391 357.289 392.93 359.563 392.007C361.988 391.085 363.656 389.471 364.565 387.165L365.248 385.32L350.921 351.422L318.403 265.64H375.481L385.713 325.134L390.034 352.114L395.037 324.903L406.407 265.64H457.572Z" fill="#CE3262"/>
<path d="M218.59 28.1115L221.319 60.8563C219.803 60.5488 218.363 60.3182 216.998 60.1645C215.786 60.0107 214.573 59.9339 213.36 59.9339C207.144 59.9339 202.596 61.7018 199.716 65.2376C196.987 68.6197 195.623 72.2324 195.623 76.0757L180.387 71.4637C180.387 64.8533 181.372 58.2428 183.343 51.6324C185.314 44.8682 188.725 39.257 193.576 34.7988C198.427 30.1868 205.022 27.8809 213.36 27.8809C214.118 27.8809 214.952 27.8809 215.861 27.8809C216.771 27.8809 217.681 27.9577 218.59 28.1115ZM176.749 148.022C191.454 148.022 202.672 151.02 210.404 157.015C218.135 163.011 222.001 172.004 222.001 183.995C222.001 194.756 219.348 203.519 214.042 210.283C208.736 217.201 201.005 222.274 190.847 225.503C180.842 228.731 168.638 230.345 154.236 230.345C131.951 230.345 116.185 228.039 106.937 223.427C97.6897 218.815 93.0659 211.897 93.0659 202.674C93.0659 196.217 96.0221 191.221 101.934 187.685C107.847 184.149 117.549 182.381 131.042 182.381L130.587 186.301C118.61 185.071 109.969 181.997 104.663 177.077C99.5089 172.004 96.9317 165.471 96.9317 157.477C96.9317 149.329 100.191 142.949 106.71 138.337C113.38 133.571 121.567 131.188 131.269 131.188L146.959 138.106H142.411C137.56 138.106 134.149 138.568 132.179 139.49C130.208 140.259 129.222 141.488 129.222 143.18C129.222 144.717 129.905 145.947 131.269 146.869C132.785 147.638 135.211 148.022 138.546 148.022H176.749ZM154.918 198.292C161.286 198.292 166.516 198.062 170.609 197.6C174.854 197.139 178.037 196.371 180.16 195.294C182.282 194.372 183.343 193.142 183.343 191.605C183.343 190.683 183.04 189.914 182.434 189.299C181.827 188.838 180.69 188.607 179.023 188.607H134.68C133.164 188.607 132.027 188.991 131.269 189.76C130.511 190.529 130.132 191.451 130.132 192.527C130.132 194.526 132.33 195.986 136.727 196.909C141.123 197.831 147.187 198.292 154.918 198.292ZM158.102 63.1622C171.443 63.1622 182.585 64.6227 191.53 67.5436C200.474 70.4645 207.22 74.8458 211.768 80.6876C216.316 86.3757 218.59 93.678 218.59 102.594C218.59 111.357 216.316 118.659 211.768 124.501C207.22 130.189 200.474 134.494 191.53 137.415C182.585 140.182 171.443 141.565 158.102 141.565C138.242 141.565 123.158 138.337 112.85 131.88C102.692 125.424 97.6139 115.662 97.6139 102.594C97.6139 93.678 99.8879 86.3757 104.436 80.6876C108.984 74.8458 115.73 70.4645 124.674 67.5436C133.77 64.6227 144.913 63.1622 158.102 63.1622ZM158.102 90.6033C155.07 90.6033 152.72 91.5257 151.053 93.3705C149.385 95.2153 148.551 98.213 148.551 102.364C148.551 106.515 149.385 109.512 151.053 111.357C152.72 113.202 155.07 114.124 158.102 114.124C161.134 114.124 163.484 113.202 165.151 111.357C166.819 109.512 167.653 106.515 167.653 102.364C167.653 98.213 166.819 95.2153 165.151 93.3705C163.484 91.5257 161.134 90.6033 158.102 90.6033Z" fill="#00ADD8"/>
<path d="M289.567 63.1622C302.301 63.1622 313.368 65.5451 322.767 70.3108C332.318 74.9227 339.746 81.6869 345.052 90.6033C350.358 99.5198 353.011 110.358 353.011 123.118C353.011 135.724 350.358 146.562 345.052 155.632C339.746 164.548 332.318 171.389 322.767 176.155C313.368 180.767 302.301 183.073 289.567 183.073C276.984 183.073 265.917 180.767 256.367 176.155C246.816 171.389 239.388 164.548 234.082 155.632C228.776 146.562 226.123 135.724 226.123 123.118C226.123 110.358 228.776 99.5198 234.082 90.6033C239.388 81.6869 246.816 74.9227 256.367 70.3108C265.917 65.5451 276.984 63.1622 289.567 63.1622ZM289.567 98.9048C287.293 98.9048 285.322 99.5966 283.655 100.98C281.987 102.21 280.698 104.593 279.789 108.129C279.031 111.665 278.652 116.661 278.652 123.118C278.652 129.574 279.031 134.571 279.789 138.106C280.698 141.488 281.987 143.871 283.655 145.255C285.322 146.638 287.293 147.33 289.567 147.33C291.993 147.33 293.963 146.638 295.479 145.255C297.147 143.871 298.36 141.488 299.118 138.106C300.027 134.571 300.482 129.574 300.482 123.118C300.482 116.661 300.027 111.665 299.118 108.129C298.36 104.593 297.147 102.21 295.479 100.98C293.963 99.5966 291.993 98.9048 289.567 98.9048Z" fill="#00ADD8"/>
</g>
<defs>
<clipPath id="clip0_503_17">
<rect width="457.143" height="457.143" fill="white" transform="translate(0.428711 0.428711)"/>
</clipPath>
</defs>
</svg>
